G75*
%MOIN*%
%OFA0B0*%
%FSLAX25Y25*%
%IPPOS*%
%LPD*%
%AMOC8*
5,1,8,0,0,1.08239X$1,22.5*
%
%ADD10C,0.00000*%
%ADD11R,0.07400X0.07400*%
%ADD12C,0.07400*%
%ADD13C,0.04756*%
%ADD14R,0.04756X0.04756*%
%ADD15C,0.01000*%
D10*
X0016575Y0001500D02*
X0016575Y0076500D01*
X0071575Y0076500D01*
X0071575Y0001500D01*
X0016575Y0001500D01*
X0055325Y0011500D02*
X0055327Y0011658D01*
X0055333Y0011815D01*
X0055343Y0011973D01*
X0055357Y0012130D01*
X0055375Y0012286D01*
X0055396Y0012443D01*
X0055422Y0012598D01*
X0055452Y0012753D01*
X0055485Y0012907D01*
X0055523Y0013060D01*
X0055564Y0013213D01*
X0055609Y0013364D01*
X0055658Y0013514D01*
X0055711Y0013662D01*
X0055767Y0013810D01*
X0055828Y0013955D01*
X0055891Y0014100D01*
X0055959Y0014242D01*
X0056030Y0014383D01*
X0056104Y0014522D01*
X0056182Y0014659D01*
X0056264Y0014794D01*
X0056348Y0014927D01*
X0056437Y0015058D01*
X0056528Y0015186D01*
X0056623Y0015313D01*
X0056720Y0015436D01*
X0056821Y0015558D01*
X0056925Y0015676D01*
X0057032Y0015792D01*
X0057142Y0015905D01*
X0057254Y0016016D01*
X0057370Y0016123D01*
X0057488Y0016228D01*
X0057608Y0016330D01*
X0057731Y0016428D01*
X0057857Y0016524D01*
X0057985Y0016616D01*
X0058115Y0016705D01*
X0058247Y0016791D01*
X0058382Y0016873D01*
X0058519Y0016952D01*
X0058657Y0017027D01*
X0058797Y0017099D01*
X0058940Y0017167D01*
X0059083Y0017232D01*
X0059229Y0017293D01*
X0059376Y0017350D01*
X0059524Y0017404D01*
X0059674Y0017454D01*
X0059824Y0017500D01*
X0059976Y0017542D01*
X0060129Y0017581D01*
X0060283Y0017615D01*
X0060438Y0017646D01*
X0060593Y0017672D01*
X0060749Y0017695D01*
X0060906Y0017714D01*
X0061063Y0017729D01*
X0061220Y0017740D01*
X0061378Y0017747D01*
X0061536Y0017750D01*
X0061693Y0017749D01*
X0061851Y0017744D01*
X0062008Y0017735D01*
X0062166Y0017722D01*
X0062322Y0017705D01*
X0062479Y0017684D01*
X0062634Y0017660D01*
X0062789Y0017631D01*
X0062944Y0017598D01*
X0063097Y0017562D01*
X0063250Y0017521D01*
X0063401Y0017477D01*
X0063551Y0017429D01*
X0063700Y0017378D01*
X0063848Y0017322D01*
X0063994Y0017263D01*
X0064139Y0017200D01*
X0064282Y0017133D01*
X0064423Y0017063D01*
X0064562Y0016990D01*
X0064700Y0016913D01*
X0064836Y0016832D01*
X0064969Y0016748D01*
X0065100Y0016661D01*
X0065229Y0016570D01*
X0065356Y0016476D01*
X0065481Y0016379D01*
X0065602Y0016279D01*
X0065722Y0016176D01*
X0065838Y0016070D01*
X0065952Y0015961D01*
X0066064Y0015849D01*
X0066172Y0015735D01*
X0066277Y0015617D01*
X0066380Y0015497D01*
X0066479Y0015375D01*
X0066575Y0015250D01*
X0066668Y0015122D01*
X0066758Y0014993D01*
X0066844Y0014861D01*
X0066928Y0014727D01*
X0067007Y0014591D01*
X0067084Y0014453D01*
X0067156Y0014313D01*
X0067225Y0014171D01*
X0067291Y0014028D01*
X0067353Y0013883D01*
X0067411Y0013736D01*
X0067466Y0013588D01*
X0067517Y0013439D01*
X0067564Y0013288D01*
X0067607Y0013137D01*
X0067646Y0012984D01*
X0067682Y0012830D01*
X0067713Y0012676D01*
X0067741Y0012521D01*
X0067765Y0012365D01*
X0067785Y0012208D01*
X0067801Y0012051D01*
X0067813Y0011894D01*
X0067821Y0011737D01*
X0067825Y0011579D01*
X0067825Y0011421D01*
X0067821Y0011263D01*
X0067813Y0011106D01*
X0067801Y0010949D01*
X0067785Y0010792D01*
X0067765Y0010635D01*
X0067741Y0010479D01*
X0067713Y0010324D01*
X0067682Y0010170D01*
X0067646Y0010016D01*
X0067607Y0009863D01*
X0067564Y0009712D01*
X0067517Y0009561D01*
X0067466Y0009412D01*
X0067411Y0009264D01*
X0067353Y0009117D01*
X0067291Y0008972D01*
X0067225Y0008829D01*
X0067156Y0008687D01*
X0067084Y0008547D01*
X0067007Y0008409D01*
X0066928Y0008273D01*
X0066844Y0008139D01*
X0066758Y0008007D01*
X0066668Y0007878D01*
X0066575Y0007750D01*
X0066479Y0007625D01*
X0066380Y0007503D01*
X0066277Y0007383D01*
X0066172Y0007265D01*
X0066064Y0007151D01*
X0065952Y0007039D01*
X0065838Y0006930D01*
X0065722Y0006824D01*
X0065602Y0006721D01*
X0065481Y0006621D01*
X0065356Y0006524D01*
X0065229Y0006430D01*
X0065100Y0006339D01*
X0064969Y0006252D01*
X0064836Y0006168D01*
X0064700Y0006087D01*
X0064562Y0006010D01*
X0064423Y0005937D01*
X0064282Y0005867D01*
X0064139Y0005800D01*
X0063994Y0005737D01*
X0063848Y0005678D01*
X0063700Y0005622D01*
X0063551Y0005571D01*
X0063401Y0005523D01*
X0063250Y0005479D01*
X0063097Y0005438D01*
X0062944Y0005402D01*
X0062789Y0005369D01*
X0062634Y0005340D01*
X0062479Y0005316D01*
X0062322Y0005295D01*
X0062166Y0005278D01*
X0062008Y0005265D01*
X0061851Y0005256D01*
X0061693Y0005251D01*
X0061536Y0005250D01*
X0061378Y0005253D01*
X0061220Y0005260D01*
X0061063Y0005271D01*
X0060906Y0005286D01*
X0060749Y0005305D01*
X0060593Y0005328D01*
X0060438Y0005354D01*
X0060283Y0005385D01*
X0060129Y0005419D01*
X0059976Y0005458D01*
X0059824Y0005500D01*
X0059674Y0005546D01*
X0059524Y0005596D01*
X0059376Y0005650D01*
X0059229Y0005707D01*
X0059083Y0005768D01*
X0058940Y0005833D01*
X0058797Y0005901D01*
X0058657Y0005973D01*
X0058519Y0006048D01*
X0058382Y0006127D01*
X0058247Y0006209D01*
X0058115Y0006295D01*
X0057985Y0006384D01*
X0057857Y0006476D01*
X0057731Y0006572D01*
X0057608Y0006670D01*
X0057488Y0006772D01*
X0057370Y0006877D01*
X0057254Y0006984D01*
X0057142Y0007095D01*
X0057032Y0007208D01*
X0056925Y0007324D01*
X0056821Y0007442D01*
X0056720Y0007564D01*
X0056623Y0007687D01*
X0056528Y0007814D01*
X0056437Y0007942D01*
X0056348Y0008073D01*
X0056264Y0008206D01*
X0056182Y0008341D01*
X0056104Y0008478D01*
X0056030Y0008617D01*
X0055959Y0008758D01*
X0055891Y0008900D01*
X0055828Y0009045D01*
X0055767Y0009190D01*
X0055711Y0009338D01*
X0055658Y0009486D01*
X0055609Y0009636D01*
X0055564Y0009787D01*
X0055523Y0009940D01*
X0055485Y0010093D01*
X0055452Y0010247D01*
X0055422Y0010402D01*
X0055396Y0010557D01*
X0055375Y0010714D01*
X0055357Y0010870D01*
X0055343Y0011027D01*
X0055333Y0011185D01*
X0055327Y0011342D01*
X0055325Y0011500D01*
X0020325Y0066500D02*
X0020327Y0066658D01*
X0020333Y0066815D01*
X0020343Y0066973D01*
X0020357Y0067130D01*
X0020375Y0067286D01*
X0020396Y0067443D01*
X0020422Y0067598D01*
X0020452Y0067753D01*
X0020485Y0067907D01*
X0020523Y0068060D01*
X0020564Y0068213D01*
X0020609Y0068364D01*
X0020658Y0068514D01*
X0020711Y0068662D01*
X0020767Y0068810D01*
X0020828Y0068955D01*
X0020891Y0069100D01*
X0020959Y0069242D01*
X0021030Y0069383D01*
X0021104Y0069522D01*
X0021182Y0069659D01*
X0021264Y0069794D01*
X0021348Y0069927D01*
X0021437Y0070058D01*
X0021528Y0070186D01*
X0021623Y0070313D01*
X0021720Y0070436D01*
X0021821Y0070558D01*
X0021925Y0070676D01*
X0022032Y0070792D01*
X0022142Y0070905D01*
X0022254Y0071016D01*
X0022370Y0071123D01*
X0022488Y0071228D01*
X0022608Y0071330D01*
X0022731Y0071428D01*
X0022857Y0071524D01*
X0022985Y0071616D01*
X0023115Y0071705D01*
X0023247Y0071791D01*
X0023382Y0071873D01*
X0023519Y0071952D01*
X0023657Y0072027D01*
X0023797Y0072099D01*
X0023940Y0072167D01*
X0024083Y0072232D01*
X0024229Y0072293D01*
X0024376Y0072350D01*
X0024524Y0072404D01*
X0024674Y0072454D01*
X0024824Y0072500D01*
X0024976Y0072542D01*
X0025129Y0072581D01*
X0025283Y0072615D01*
X0025438Y0072646D01*
X0025593Y0072672D01*
X0025749Y0072695D01*
X0025906Y0072714D01*
X0026063Y0072729D01*
X0026220Y0072740D01*
X0026378Y0072747D01*
X0026536Y0072750D01*
X0026693Y0072749D01*
X0026851Y0072744D01*
X0027008Y0072735D01*
X0027166Y0072722D01*
X0027322Y0072705D01*
X0027479Y0072684D01*
X0027634Y0072660D01*
X0027789Y0072631D01*
X0027944Y0072598D01*
X0028097Y0072562D01*
X0028250Y0072521D01*
X0028401Y0072477D01*
X0028551Y0072429D01*
X0028700Y0072378D01*
X0028848Y0072322D01*
X0028994Y0072263D01*
X0029139Y0072200D01*
X0029282Y0072133D01*
X0029423Y0072063D01*
X0029562Y0071990D01*
X0029700Y0071913D01*
X0029836Y0071832D01*
X0029969Y0071748D01*
X0030100Y0071661D01*
X0030229Y0071570D01*
X0030356Y0071476D01*
X0030481Y0071379D01*
X0030602Y0071279D01*
X0030722Y0071176D01*
X0030838Y0071070D01*
X0030952Y0070961D01*
X0031064Y0070849D01*
X0031172Y0070735D01*
X0031277Y0070617D01*
X0031380Y0070497D01*
X0031479Y0070375D01*
X0031575Y0070250D01*
X0031668Y0070122D01*
X0031758Y0069993D01*
X0031844Y0069861D01*
X0031928Y0069727D01*
X0032007Y0069591D01*
X0032084Y0069453D01*
X0032156Y0069313D01*
X0032225Y0069171D01*
X0032291Y0069028D01*
X0032353Y0068883D01*
X0032411Y0068736D01*
X0032466Y0068588D01*
X0032517Y0068439D01*
X0032564Y0068288D01*
X0032607Y0068137D01*
X0032646Y0067984D01*
X0032682Y0067830D01*
X0032713Y0067676D01*
X0032741Y0067521D01*
X0032765Y0067365D01*
X0032785Y0067208D01*
X0032801Y0067051D01*
X0032813Y0066894D01*
X0032821Y0066737D01*
X0032825Y0066579D01*
X0032825Y0066421D01*
X0032821Y0066263D01*
X0032813Y0066106D01*
X0032801Y0065949D01*
X0032785Y0065792D01*
X0032765Y0065635D01*
X0032741Y0065479D01*
X0032713Y0065324D01*
X0032682Y0065170D01*
X0032646Y0065016D01*
X0032607Y0064863D01*
X0032564Y0064712D01*
X0032517Y0064561D01*
X0032466Y0064412D01*
X0032411Y0064264D01*
X0032353Y0064117D01*
X0032291Y0063972D01*
X0032225Y0063829D01*
X0032156Y0063687D01*
X0032084Y0063547D01*
X0032007Y0063409D01*
X0031928Y0063273D01*
X0031844Y0063139D01*
X0031758Y0063007D01*
X0031668Y0062878D01*
X0031575Y0062750D01*
X0031479Y0062625D01*
X0031380Y0062503D01*
X0031277Y0062383D01*
X0031172Y0062265D01*
X0031064Y0062151D01*
X0030952Y0062039D01*
X0030838Y0061930D01*
X0030722Y0061824D01*
X0030602Y0061721D01*
X0030481Y0061621D01*
X0030356Y0061524D01*
X0030229Y0061430D01*
X0030100Y0061339D01*
X0029969Y0061252D01*
X0029836Y0061168D01*
X0029700Y0061087D01*
X0029562Y0061010D01*
X0029423Y0060937D01*
X0029282Y0060867D01*
X0029139Y0060800D01*
X0028994Y0060737D01*
X0028848Y0060678D01*
X0028700Y0060622D01*
X0028551Y0060571D01*
X0028401Y0060523D01*
X0028250Y0060479D01*
X0028097Y0060438D01*
X0027944Y0060402D01*
X0027789Y0060369D01*
X0027634Y0060340D01*
X0027479Y0060316D01*
X0027322Y0060295D01*
X0027166Y0060278D01*
X0027008Y0060265D01*
X0026851Y0060256D01*
X0026693Y0060251D01*
X0026536Y0060250D01*
X0026378Y0060253D01*
X0026220Y0060260D01*
X0026063Y0060271D01*
X0025906Y0060286D01*
X0025749Y0060305D01*
X0025593Y0060328D01*
X0025438Y0060354D01*
X0025283Y0060385D01*
X0025129Y0060419D01*
X0024976Y0060458D01*
X0024824Y0060500D01*
X0024674Y0060546D01*
X0024524Y0060596D01*
X0024376Y0060650D01*
X0024229Y0060707D01*
X0024083Y0060768D01*
X0023940Y0060833D01*
X0023797Y0060901D01*
X0023657Y0060973D01*
X0023519Y0061048D01*
X0023382Y0061127D01*
X0023247Y0061209D01*
X0023115Y0061295D01*
X0022985Y0061384D01*
X0022857Y0061476D01*
X0022731Y0061572D01*
X0022608Y0061670D01*
X0022488Y0061772D01*
X0022370Y0061877D01*
X0022254Y0061984D01*
X0022142Y0062095D01*
X0022032Y0062208D01*
X0021925Y0062324D01*
X0021821Y0062442D01*
X0021720Y0062564D01*
X0021623Y0062687D01*
X0021528Y0062814D01*
X0021437Y0062942D01*
X0021348Y0063073D01*
X0021264Y0063206D01*
X0021182Y0063341D01*
X0021104Y0063478D01*
X0021030Y0063617D01*
X0020959Y0063758D01*
X0020891Y0063900D01*
X0020828Y0064045D01*
X0020767Y0064190D01*
X0020711Y0064338D01*
X0020658Y0064486D01*
X0020609Y0064636D01*
X0020564Y0064787D01*
X0020523Y0064940D01*
X0020485Y0065093D01*
X0020452Y0065247D01*
X0020422Y0065402D01*
X0020396Y0065557D01*
X0020375Y0065714D01*
X0020357Y0065870D01*
X0020343Y0066027D01*
X0020333Y0066185D01*
X0020327Y0066342D01*
X0020325Y0066500D01*
D11*
X0026575Y0011500D03*
D12*
X0026575Y0021500D03*
X0026575Y0031500D03*
X0026575Y0041500D03*
D13*
X0041575Y0051500D03*
X0051575Y0041500D03*
X0061575Y0051500D03*
D14*
X0051575Y0061500D03*
D15*
X0054660Y0058415D02*
X0070075Y0058415D01*
X0070075Y0057417D02*
X0018075Y0057417D01*
X0018075Y0058415D02*
X0048489Y0058415D01*
X0048197Y0058708D02*
X0048782Y0058122D01*
X0054367Y0058122D01*
X0054952Y0058708D01*
X0054952Y0064292D01*
X0054367Y0064878D01*
X0048782Y0064878D01*
X0048197Y0064292D01*
X0048197Y0058708D01*
X0048197Y0059414D02*
X0029718Y0059414D01*
X0030965Y0059930D02*
X0033145Y0062110D01*
X0034325Y0064958D01*
X0034325Y0068042D01*
X0033145Y0070890D01*
X0030965Y0073070D01*
X0028116Y0074250D01*
X0025033Y0074250D01*
X0022184Y0073070D01*
X0020004Y0070890D01*
X0018825Y0068042D01*
X0018825Y0064958D01*
X0020004Y0062110D01*
X0022184Y0059930D01*
X0025033Y0058750D01*
X0028116Y0058750D01*
X0030965Y0059930D01*
X0031447Y0060412D02*
X0048197Y0060412D01*
X0048197Y0061411D02*
X0032445Y0061411D01*
X0033269Y0062409D02*
X0048197Y0062409D01*
X0048197Y0063408D02*
X0033682Y0063408D01*
X0034096Y0064406D02*
X0048311Y0064406D01*
X0054838Y0064406D02*
X0070075Y0064406D01*
X0070075Y0063408D02*
X0054952Y0063408D01*
X0054952Y0062409D02*
X0070075Y0062409D01*
X0070075Y0061411D02*
X0054952Y0061411D01*
X0054952Y0060412D02*
X0070075Y0060412D01*
X0070075Y0059414D02*
X0054952Y0059414D01*
X0059102Y0054512D02*
X0058562Y0053972D01*
X0058138Y0053337D01*
X0057846Y0052631D01*
X0057697Y0051882D01*
X0057697Y0051689D01*
X0061385Y0051689D01*
X0061385Y0051311D01*
X0057697Y0051311D01*
X0057697Y0051118D01*
X0057846Y0050369D01*
X0058138Y0049663D01*
X0058562Y0049028D01*
X0059102Y0048488D01*
X0059738Y0048063D01*
X0060443Y0047771D01*
X0061193Y0047622D01*
X0061386Y0047622D01*
X0061386Y0051311D01*
X0061763Y0051311D01*
X0061763Y0047622D01*
X0061956Y0047622D01*
X0062706Y0047771D01*
X0063411Y0048063D01*
X0064047Y0048488D01*
X0064587Y0049028D01*
X0065011Y0049663D01*
X0065303Y0050369D01*
X0065452Y0051118D01*
X0065452Y0051311D01*
X0061764Y0051311D01*
X0061764Y0051689D01*
X0065452Y0051689D01*
X0065452Y0051882D01*
X0065303Y0052631D01*
X0065011Y0053337D01*
X0064587Y0053972D01*
X0064047Y0054512D01*
X0063411Y0054937D01*
X0062706Y0055229D01*
X0061956Y0055378D01*
X0061763Y0055378D01*
X0061763Y0051689D01*
X0061386Y0051689D01*
X0061386Y0055378D01*
X0061193Y0055378D01*
X0060443Y0055229D01*
X0059738Y0054937D01*
X0059102Y0054512D01*
X0059011Y0054421D02*
X0043349Y0054421D01*
X0043488Y0054364D02*
X0042246Y0054878D01*
X0040903Y0054878D01*
X0039661Y0054364D01*
X0038711Y0053413D01*
X0038197Y0052172D01*
X0038197Y0050828D01*
X0038711Y0049587D01*
X0039661Y0048636D01*
X0040903Y0048122D01*
X0042246Y0048122D01*
X0043488Y0048636D01*
X0044438Y0049587D01*
X0044952Y0050828D01*
X0044952Y0052172D01*
X0044438Y0053413D01*
X0043488Y0054364D01*
X0044429Y0053423D02*
X0058195Y0053423D01*
X0057804Y0052424D02*
X0044848Y0052424D01*
X0044952Y0051426D02*
X0061385Y0051426D01*
X0061764Y0051426D02*
X0070075Y0051426D01*
X0070075Y0052424D02*
X0065345Y0052424D01*
X0064954Y0053423D02*
X0070075Y0053423D01*
X0070075Y0054421D02*
X0064138Y0054421D01*
X0061763Y0054421D02*
X0061386Y0054421D01*
X0061386Y0053423D02*
X0061763Y0053423D01*
X0061763Y0052424D02*
X0061386Y0052424D01*
X0061386Y0050427D02*
X0061763Y0050427D01*
X0061763Y0049429D02*
X0061386Y0049429D01*
X0061386Y0048430D02*
X0061763Y0048430D01*
X0063960Y0048430D02*
X0070075Y0048430D01*
X0070075Y0047432D02*
X0018075Y0047432D01*
X0018075Y0048430D02*
X0040159Y0048430D01*
X0038869Y0049429D02*
X0018075Y0049429D01*
X0018075Y0050427D02*
X0038363Y0050427D01*
X0038197Y0051426D02*
X0018075Y0051426D01*
X0018075Y0052424D02*
X0038301Y0052424D01*
X0038720Y0053423D02*
X0018075Y0053423D01*
X0018075Y0054421D02*
X0039800Y0054421D01*
X0044786Y0050427D02*
X0057834Y0050427D01*
X0058295Y0049429D02*
X0044280Y0049429D01*
X0042990Y0048430D02*
X0059189Y0048430D01*
X0054414Y0043437D02*
X0070075Y0043437D01*
X0070075Y0042439D02*
X0054842Y0042439D01*
X0054952Y0042172D02*
X0054438Y0043413D01*
X0053488Y0044364D01*
X0052246Y0044878D01*
X0050903Y0044878D01*
X0049661Y0044364D01*
X0048711Y0043413D01*
X0048197Y0042172D01*
X0048197Y0040828D01*
X0048711Y0039587D01*
X0049661Y0038636D01*
X0050903Y0038122D01*
X0052246Y0038122D01*
X0053488Y0038636D01*
X0054438Y0039587D01*
X0054952Y0040828D01*
X0054952Y0042172D01*
X0054952Y0041440D02*
X0070075Y0041440D01*
X0070075Y0040442D02*
X0054793Y0040442D01*
X0054295Y0039443D02*
X0070075Y0039443D01*
X0070075Y0038445D02*
X0053026Y0038445D01*
X0050123Y0038445D02*
X0030166Y0038445D01*
X0030559Y0038838D02*
X0029237Y0037516D01*
X0027509Y0036800D01*
X0025640Y0036800D01*
X0023912Y0037516D01*
X0022590Y0038838D01*
X0021875Y0040565D01*
X0021875Y0042435D01*
X0022590Y0044162D01*
X0023912Y0045484D01*
X0025640Y0046200D01*
X0027509Y0046200D01*
X0029237Y0045484D01*
X0030559Y0044162D01*
X0031275Y0042435D01*
X0031275Y0040565D01*
X0030559Y0038838D01*
X0030810Y0039443D02*
X0048854Y0039443D01*
X0048357Y0040442D02*
X0031223Y0040442D01*
X0031275Y0041440D02*
X0048197Y0041440D01*
X0048307Y0042439D02*
X0031273Y0042439D01*
X0030859Y0043437D02*
X0048735Y0043437D01*
X0049836Y0044436D02*
X0030285Y0044436D01*
X0029287Y0045434D02*
X0070075Y0045434D01*
X0070075Y0044436D02*
X0053313Y0044436D01*
X0064854Y0049429D02*
X0070075Y0049429D01*
X0070075Y0050427D02*
X0065315Y0050427D01*
X0070075Y0046433D02*
X0018075Y0046433D01*
X0018075Y0045434D02*
X0023862Y0045434D01*
X0022864Y0044436D02*
X0018075Y0044436D01*
X0018075Y0043437D02*
X0022290Y0043437D01*
X0021876Y0042439D02*
X0018075Y0042439D01*
X0018075Y0041440D02*
X0021875Y0041440D01*
X0021926Y0040442D02*
X0018075Y0040442D01*
X0018075Y0039443D02*
X0022339Y0039443D01*
X0022983Y0038445D02*
X0018075Y0038445D01*
X0018075Y0037446D02*
X0024079Y0037446D01*
X0023912Y0035484D02*
X0022590Y0034162D01*
X0021875Y0032435D01*
X0021875Y0030565D01*
X0022590Y0028838D01*
X0023912Y0027516D01*
X0025640Y0026800D01*
X0027509Y0026800D01*
X0029237Y0027516D01*
X0030559Y0028838D01*
X0031275Y0030565D01*
X0031275Y0032435D01*
X0030559Y0034162D01*
X0029237Y0035484D01*
X0027509Y0036200D01*
X0025640Y0036200D01*
X0023912Y0035484D01*
X0023877Y0035449D02*
X0018075Y0035449D01*
X0018075Y0034451D02*
X0022879Y0034451D01*
X0022296Y0033452D02*
X0018075Y0033452D01*
X0018075Y0032454D02*
X0021882Y0032454D01*
X0021875Y0031455D02*
X0018075Y0031455D01*
X0018075Y0030457D02*
X0021919Y0030457D01*
X0022333Y0029458D02*
X0018075Y0029458D01*
X0018075Y0028460D02*
X0022968Y0028460D01*
X0024043Y0027461D02*
X0018075Y0027461D01*
X0018075Y0026463D02*
X0070075Y0026463D01*
X0070075Y0027461D02*
X0029106Y0027461D01*
X0030181Y0028460D02*
X0070075Y0028460D01*
X0070075Y0029458D02*
X0030816Y0029458D01*
X0031230Y0030457D02*
X0070075Y0030457D01*
X0070075Y0031455D02*
X0031275Y0031455D01*
X0031267Y0032454D02*
X0070075Y0032454D01*
X0070075Y0033452D02*
X0030853Y0033452D01*
X0030270Y0034451D02*
X0070075Y0034451D01*
X0070075Y0035449D02*
X0029272Y0035449D01*
X0029070Y0037446D02*
X0070075Y0037446D01*
X0070075Y0036448D02*
X0018075Y0036448D01*
X0023912Y0025484D02*
X0025640Y0026200D01*
X0027509Y0026200D01*
X0029237Y0025484D01*
X0030559Y0024162D01*
X0031275Y0022435D01*
X0031275Y0020565D01*
X0030559Y0018838D01*
X0029237Y0017516D01*
X0027509Y0016800D01*
X0025640Y0016800D01*
X0023912Y0017516D01*
X0022590Y0018838D01*
X0021875Y0020565D01*
X0021875Y0022435D01*
X0022590Y0024162D01*
X0023912Y0025484D01*
X0023892Y0025464D02*
X0018075Y0025464D01*
X0018075Y0024466D02*
X0022893Y0024466D01*
X0022302Y0023467D02*
X0018075Y0023467D01*
X0018075Y0022469D02*
X0021889Y0022469D01*
X0021875Y0021470D02*
X0018075Y0021470D01*
X0018075Y0020472D02*
X0021913Y0020472D01*
X0022327Y0019473D02*
X0018075Y0019473D01*
X0018075Y0018475D02*
X0022953Y0018475D01*
X0024007Y0017476D02*
X0018075Y0017476D01*
X0018075Y0016478D02*
X0022088Y0016478D01*
X0021953Y0016400D02*
X0021674Y0016121D01*
X0021477Y0015779D01*
X0021375Y0015397D01*
X0021375Y0012000D01*
X0026074Y0012000D01*
X0026074Y0011000D01*
X0021375Y0011000D01*
X0021375Y0007603D01*
X0021477Y0007221D01*
X0021674Y0006879D01*
X0021953Y0006600D01*
X0022296Y0006402D01*
X0022677Y0006300D01*
X0026075Y0006300D01*
X0026075Y0011000D01*
X0027074Y0011000D01*
X0027074Y0006300D01*
X0030472Y0006300D01*
X0030853Y0006402D01*
X0031196Y0006600D01*
X0031475Y0006879D01*
X0031672Y0007221D01*
X0031775Y0007603D01*
X0031774Y0011000D01*
X0027075Y0011000D01*
X0027075Y0012000D01*
X0031775Y0012000D01*
X0031775Y0015397D01*
X0031672Y0015779D01*
X0031475Y0016121D01*
X0031196Y0016400D01*
X0030853Y0016598D01*
X0030472Y0016700D01*
X0027074Y0016700D01*
X0027074Y0012000D01*
X0026075Y0012000D01*
X0026075Y0016700D01*
X0022677Y0016700D01*
X0022296Y0016598D01*
X0021953Y0016400D01*
X0021396Y0015479D02*
X0018075Y0015479D01*
X0018075Y0014481D02*
X0021375Y0014481D01*
X0021375Y0013482D02*
X0018075Y0013482D01*
X0018075Y0012484D02*
X0021375Y0012484D01*
X0021375Y0010487D02*
X0018075Y0010487D01*
X0018075Y0011485D02*
X0026074Y0011485D01*
X0026075Y0010487D02*
X0027074Y0010487D01*
X0027075Y0011485D02*
X0053825Y0011485D01*
X0053825Y0010487D02*
X0031775Y0010487D01*
X0031775Y0009488D02*
X0054019Y0009488D01*
X0053825Y0009958D02*
X0055004Y0007110D01*
X0057184Y0004930D01*
X0060033Y0003750D01*
X0063116Y0003750D01*
X0065965Y0004930D01*
X0068145Y0007110D01*
X0069325Y0009958D01*
X0069325Y0013042D01*
X0068145Y0015890D01*
X0065965Y0018070D01*
X0063116Y0019250D01*
X0060033Y0019250D01*
X0057184Y0018070D01*
X0055004Y0015890D01*
X0053825Y0013042D01*
X0053825Y0009958D01*
X0054433Y0008490D02*
X0031775Y0008490D01*
X0031745Y0007491D02*
X0054847Y0007491D01*
X0055622Y0006493D02*
X0031010Y0006493D01*
X0027074Y0006493D02*
X0026075Y0006493D01*
X0026075Y0007491D02*
X0027074Y0007491D01*
X0027074Y0008490D02*
X0026075Y0008490D01*
X0026075Y0009488D02*
X0027074Y0009488D01*
X0027074Y0012484D02*
X0026075Y0012484D01*
X0026075Y0013482D02*
X0027074Y0013482D01*
X0027074Y0014481D02*
X0026075Y0014481D01*
X0026075Y0015479D02*
X0027074Y0015479D01*
X0027074Y0016478D02*
X0026075Y0016478D01*
X0029142Y0017476D02*
X0056591Y0017476D01*
X0055592Y0016478D02*
X0031062Y0016478D01*
X0031753Y0015479D02*
X0054834Y0015479D01*
X0054421Y0014481D02*
X0031775Y0014481D01*
X0031775Y0013482D02*
X0054007Y0013482D01*
X0053825Y0012484D02*
X0031775Y0012484D01*
X0030196Y0018475D02*
X0058161Y0018475D01*
X0064988Y0018475D02*
X0070075Y0018475D01*
X0070075Y0019473D02*
X0030822Y0019473D01*
X0031236Y0020472D02*
X0070075Y0020472D01*
X0070075Y0021470D02*
X0031275Y0021470D01*
X0031260Y0022469D02*
X0070075Y0022469D01*
X0070075Y0023467D02*
X0030847Y0023467D01*
X0030256Y0024466D02*
X0070075Y0024466D01*
X0070075Y0025464D02*
X0029257Y0025464D01*
X0021375Y0009488D02*
X0018075Y0009488D01*
X0018075Y0008490D02*
X0021375Y0008490D01*
X0021404Y0007491D02*
X0018075Y0007491D01*
X0018075Y0006493D02*
X0022139Y0006493D01*
X0018075Y0005494D02*
X0056620Y0005494D01*
X0058233Y0004496D02*
X0018075Y0004496D01*
X0018075Y0003497D02*
X0070075Y0003497D01*
X0070075Y0003000D02*
X0070075Y0075000D01*
X0018075Y0075000D01*
X0018075Y0003000D01*
X0070075Y0003000D01*
X0070075Y0004496D02*
X0064916Y0004496D01*
X0066529Y0005494D02*
X0070075Y0005494D01*
X0070075Y0006493D02*
X0067527Y0006493D01*
X0068302Y0007491D02*
X0070075Y0007491D01*
X0070075Y0008490D02*
X0068716Y0008490D01*
X0069130Y0009488D02*
X0070075Y0009488D01*
X0070075Y0010487D02*
X0069325Y0010487D01*
X0069325Y0011485D02*
X0070075Y0011485D01*
X0070075Y0012484D02*
X0069325Y0012484D01*
X0069142Y0013482D02*
X0070075Y0013482D01*
X0070075Y0014481D02*
X0068728Y0014481D01*
X0068315Y0015479D02*
X0070075Y0015479D01*
X0070075Y0016478D02*
X0067557Y0016478D01*
X0066558Y0017476D02*
X0070075Y0017476D01*
X0070075Y0055420D02*
X0018075Y0055420D01*
X0018075Y0056418D02*
X0070075Y0056418D01*
X0070075Y0065405D02*
X0034325Y0065405D01*
X0034325Y0066403D02*
X0070075Y0066403D01*
X0070075Y0067402D02*
X0034325Y0067402D01*
X0034176Y0068400D02*
X0070075Y0068400D01*
X0070075Y0069399D02*
X0033762Y0069399D01*
X0033349Y0070397D02*
X0070075Y0070397D01*
X0070075Y0071396D02*
X0032639Y0071396D01*
X0031640Y0072394D02*
X0070075Y0072394D01*
X0070075Y0073393D02*
X0030185Y0073393D01*
X0022964Y0073393D02*
X0018075Y0073393D01*
X0018075Y0074391D02*
X0070075Y0074391D01*
X0023431Y0059414D02*
X0018075Y0059414D01*
X0018075Y0060412D02*
X0021702Y0060412D01*
X0020704Y0061411D02*
X0018075Y0061411D01*
X0018075Y0062409D02*
X0019880Y0062409D01*
X0019467Y0063408D02*
X0018075Y0063408D01*
X0018075Y0064406D02*
X0019053Y0064406D01*
X0018825Y0065405D02*
X0018075Y0065405D01*
X0018075Y0066403D02*
X0018825Y0066403D01*
X0018825Y0067402D02*
X0018075Y0067402D01*
X0018075Y0068400D02*
X0018973Y0068400D01*
X0019387Y0069399D02*
X0018075Y0069399D01*
X0018075Y0070397D02*
X0019800Y0070397D01*
X0020510Y0071396D02*
X0018075Y0071396D01*
X0018075Y0072394D02*
X0021509Y0072394D01*
M02*
