G75*
G70*
%OFA0B0*%
%FSLAX24Y24*%
%IPPOS*%
%LPD*%
%AMOC8*
5,1,8,0,0,1.08239X$1,22.5*
%
%ADD10C,0.0050*%
%ADD11C,0.0080*%
D10*
X001469Y000855D02*
X001514Y000810D01*
X001694Y000810D01*
X001739Y000855D01*
X001739Y000945D01*
X001694Y000990D01*
X001604Y000990D01*
X001604Y000900D01*
X001514Y000990D02*
X001469Y000945D01*
X001469Y000855D01*
X001469Y001760D02*
X001649Y001760D01*
X001739Y001850D01*
X001649Y001940D01*
X001469Y001940D01*
X000774Y002905D02*
X000494Y003065D01*
X000554Y003185D01*
X000624Y003315D01*
X000914Y003155D01*
X000629Y002170D02*
X000631Y002258D01*
X000638Y002346D01*
X000648Y002434D01*
X000664Y002521D01*
X000683Y002607D01*
X000707Y002693D01*
X000734Y002776D01*
X000766Y002859D01*
X000802Y002940D01*
X000842Y003019D01*
X000885Y003095D01*
X000932Y003170D01*
X000983Y003242D01*
X001038Y003312D01*
X001095Y003379D01*
X001156Y003443D01*
X001220Y003504D01*
X001287Y003561D01*
X001357Y003616D01*
X001429Y003667D01*
X001504Y003714D01*
X001580Y003757D01*
X001659Y003797D01*
X001740Y003833D01*
X001823Y003865D01*
X001906Y003892D01*
X001992Y003916D01*
X002078Y003935D01*
X002165Y003951D01*
X002253Y003961D01*
X002341Y003968D01*
X002429Y003970D01*
X002517Y003968D01*
X002605Y003961D01*
X002693Y003951D01*
X002780Y003935D01*
X002866Y003916D01*
X002952Y003892D01*
X003035Y003865D01*
X003118Y003833D01*
X003199Y003797D01*
X003278Y003757D01*
X003354Y003714D01*
X003429Y003667D01*
X003501Y003616D01*
X003571Y003561D01*
X003638Y003504D01*
X003702Y003443D01*
X003763Y003379D01*
X003820Y003312D01*
X003875Y003242D01*
X003926Y003170D01*
X003973Y003095D01*
X004016Y003019D01*
X004056Y002940D01*
X004092Y002859D01*
X004124Y002776D01*
X004151Y002693D01*
X004175Y002607D01*
X004194Y002521D01*
X004210Y002434D01*
X004220Y002346D01*
X004227Y002258D01*
X004229Y002170D01*
X004227Y002082D01*
X004220Y001994D01*
X004210Y001906D01*
X004194Y001819D01*
X004175Y001733D01*
X004151Y001647D01*
X004124Y001564D01*
X004092Y001481D01*
X004056Y001400D01*
X004016Y001321D01*
X003973Y001245D01*
X003926Y001170D01*
X003875Y001098D01*
X003820Y001028D01*
X003763Y000961D01*
X003702Y000897D01*
X003638Y000836D01*
X003571Y000779D01*
X003501Y000724D01*
X003429Y000673D01*
X003354Y000626D01*
X003278Y000583D01*
X003199Y000543D01*
X003118Y000507D01*
X003035Y000475D01*
X002952Y000448D01*
X002866Y000424D01*
X002780Y000405D01*
X002693Y000389D01*
X002605Y000379D01*
X002517Y000372D01*
X002429Y000370D01*
X002341Y000372D01*
X002253Y000379D01*
X002165Y000389D01*
X002078Y000405D01*
X001992Y000424D01*
X001906Y000448D01*
X001823Y000475D01*
X001740Y000507D01*
X001659Y000543D01*
X001580Y000583D01*
X001504Y000626D01*
X001429Y000673D01*
X001357Y000724D01*
X001287Y000779D01*
X001220Y000836D01*
X001156Y000897D01*
X001095Y000961D01*
X001038Y001028D01*
X000983Y001098D01*
X000932Y001170D01*
X000885Y001245D01*
X000842Y001321D01*
X000802Y001400D01*
X000766Y001481D01*
X000734Y001564D01*
X000707Y001647D01*
X000683Y001733D01*
X000664Y001819D01*
X000648Y001906D01*
X000638Y001994D01*
X000631Y002082D01*
X000629Y002170D01*
X003069Y003455D02*
X003114Y003410D01*
X003159Y003410D01*
X003204Y003455D01*
X003204Y003545D01*
X003249Y003590D01*
X003294Y003590D01*
X003339Y003545D01*
X003339Y003455D01*
X003294Y003410D01*
X003114Y003590D02*
X003069Y003545D01*
X003069Y003455D01*
D11*
X002914Y003435D02*
X002664Y003685D01*
X002164Y003685D01*
X001914Y003435D01*
X001914Y002935D01*
X002164Y002685D01*
X001914Y002435D01*
X001914Y001935D01*
X002164Y001685D01*
X001914Y001435D01*
X001914Y000935D01*
X002164Y000685D01*
X002664Y000685D01*
X002914Y000935D01*
X002914Y001435D01*
X002664Y001685D01*
X002914Y001935D01*
X002914Y002435D01*
X002664Y002685D01*
X002914Y002935D01*
X002914Y003435D01*
M02*
